<svg width="28" height="32" viewBox="0 0 28 32" fill="none" xmlns="http://www.w3.org/2000/svg">
<path d="M26 32H14C13.6464 32 13.3073 31.8595 13.0572 31.6094C12.8072 31.3594 12.6667 31.0202 12.6667 30.6666V28C12.6667 27.6463 12.8072 27.3072 13.0572 27.0571C13.3073 26.8071 13.6464 26.6666 14 26.6666H26C26.3536 26.6666 26.6928 26.8071 26.9428 27.0571C27.1929 27.3072 27.3334 27.6463 27.3334 28V30.6666C27.3334 31.0202 27.1929 31.3594 26.9428 31.6094C26.6928 31.8595 26.3536 32 26 32Z" fill="#D6B1FF"/>
<path d="M26 0H2.00002C1.6464 0 1.30726 0.140475 1.05721 0.390523C0.807162 0.640572 0.666687 0.979711 0.666687 1.33333V4C0.666687 4.35362 0.807162 4.69276 1.05721 4.94281C1.30726 5.19286 1.6464 5.33333 2.00002 5.33333H26C26.3536 5.33333 26.6928 5.19286 26.9428 4.94281C27.1929 4.69276 27.3334 4.35362 27.3334 4V1.33333C27.3334 0.979711 27.1929 0.640572 26.9428 0.390523C26.6928 0.140475 26.3536 0 26 0Z" fill="#2EC5CE"/>
<path d="M26 8H2.00002C1.6464 8 1.30726 8.14047 1.05721 8.39052C0.807162 8.64057 0.666687 8.97971 0.666687 9.33333V22.6667C0.666687 23.0203 0.807162 23.3594 1.05721 23.6095C1.30726 23.8595 1.6464 24 2.00002 24H26C26.3536 24 26.6928 23.8595 26.9428 23.6095C27.1929 23.3594 27.3334 23.0203 27.3334 22.6667V9.33333C27.3334 8.97971 27.1929 8.64057 26.9428 8.39052C26.6928 8.14047 26.3536 8 26 8Z" fill="#8C30F5"/>
</svg>
